<svg width="26" height="26" viewBox="0 0 26 26" fill="none" xmlns="http://www.w3.org/2000/svg">
<g clip-path="url(#clip0_2_6314)">
<path d="M13.1151 2.09766C11.0406 2.09766 9.01275 2.71281 7.28787 3.86533C5.563 5.01786 4.21863 6.65598 3.42476 8.57255C2.63089 10.4891 2.42317 12.5981 2.82789 14.6327C3.2326 16.6673 4.23156 18.5362 5.69844 20.0031C7.16532 21.47 9.03425 22.469 11.0689 22.8737C13.1035 23.2784 15.2124 23.0707 17.129 22.2768C19.0456 21.4829 20.6837 20.1386 21.8362 18.4137C22.9888 16.6888 23.6039 14.6609 23.6039 12.5864C23.6039 11.209 23.3326 9.84511 22.8055 8.57255C22.2784 7.3 21.5058 6.14372 20.5318 5.16975C19.5578 4.19578 18.4016 3.42318 17.129 2.89607C15.8565 2.36896 14.4925 2.09766 13.1151 2.09766ZM13.1151 20.9775C11.4555 20.9775 9.83322 20.4853 8.45333 19.5633C7.07343 18.6413 5.99793 17.3308 5.36283 15.7975C4.72774 14.2643 4.56157 12.5771 4.88534 10.9494C5.20911 9.32173 6.00827 7.82659 7.18178 6.65309C8.35528 5.47958 9.85042 4.68041 11.4781 4.35664C13.1058 4.03287 14.793 4.19904 16.3262 4.83414C17.8595 5.46924 19.17 6.54474 20.092 7.92463C21.014 9.30453 21.5062 10.9269 21.5062 12.5864C21.5062 14.8119 20.6221 16.9462 19.0485 18.5198C17.4749 20.0934 15.3406 20.9775 13.1151 20.9775Z" fill="#03FB75"/>
<path d="M13.1152 17.8312C13.6944 17.8312 14.164 17.3616 14.164 16.7823C14.164 16.203 13.6944 15.7334 13.1152 15.7334C12.5359 15.7334 12.0663 16.203 12.0663 16.7823C12.0663 17.3616 12.5359 17.8312 13.1152 17.8312Z" fill="#03FB75"/>
<path d="M13.1152 7.3418C12.837 7.3418 12.5702 7.4523 12.3735 7.64901C12.1768 7.84571 12.0663 8.1125 12.0663 8.39067V13.6351C12.0663 13.9132 12.1768 14.18 12.3735 14.3767C12.5702 14.5734 12.837 14.6839 13.1152 14.6839C13.3933 14.6839 13.6601 14.5734 13.8568 14.3767C14.0535 14.18 14.164 13.9132 14.164 13.6351V8.39067C14.164 8.1125 14.0535 7.84571 13.8568 7.64901C13.6601 7.4523 13.3933 7.3418 13.1152 7.3418Z" fill="#03FB75"/>
</g>
<defs>
<clipPath id="clip0_2_6314">
<rect width="25.1731" height="25.1731" fill="white" transform="translate(0.528564)"/>
</clipPath>
</defs>
</svg>
