<svg width="277" height="203" viewBox="0 0 277 203" fill="none" xmlns="http://www.w3.org/2000/svg">
<path d="M276.061 15.0607C276.646 14.4749 276.646 13.5251 276.061 12.9393L266.515 3.3934C265.929 2.80761 264.979 2.80761 264.393 3.3934C263.808 3.97919 263.808 4.92893 264.393 5.51472L272.879 14L264.393 22.4853C263.808 23.0711 263.808 24.0208 264.393 24.6066C264.979 25.1924 265.929 25.1924 266.515 24.6066L276.061 15.0607ZM12 15.5H275V12.5H12V15.5Z" fill="#03FB75"/>
<line y1="-1.25" x2="190" y2="-1.25" transform="matrix(4.37114e-08 1 1 -4.37114e-08 14 13)" stroke="#03FB75" stroke-width="2.5"/>
<g clip-path="url(#clip0_2_22774)">
<path d="M14.0004 0.692261C6.38544 0.692261 0.199219 6.81956 0.199219 14.3461C0.199219 21.8727 6.38544 28 14.0004 28C21.6153 28 27.8015 21.8727 27.8015 14.3461C27.8015 6.80483 21.6006 0.692261 14.0004 0.692261Z" fill="#E5A100"/>
<path d="M13.9996 0C6.57612 0 0.522461 6.03893 0.522461 13.4771C0.522461 20.9153 6.56139 26.9542 13.9996 26.9542C21.4378 26.9542 27.4767 20.9153 27.4767 13.4771C27.462 6.03893 21.423 0 13.9996 0Z" fill="#FFCF00"/>
<path d="M13.9998 2.28296C7.82828 2.28296 2.80566 7.30558 2.80566 13.4771C2.80566 19.6486 7.82828 24.6712 13.9998 24.6712C20.1713 24.6712 25.1939 19.6486 25.1939 13.4771C25.1939 7.30558 20.1713 2.28296 13.9998 2.28296ZM13.9998 23.5518C8.4469 23.5518 3.92507 19.0299 3.92507 13.4771C3.92507 7.9242 8.4469 3.40237 13.9998 3.40237C19.5526 3.40237 24.0745 7.9242 24.0745 13.4771C24.0745 19.0299 19.5526 23.5518 13.9998 23.5518Z" fill="#E5A100"/>
<path d="M13.6761 26.91C13.6172 26.91 13.5583 26.8806 13.5288 26.8511C13.4994 26.8069 13.4699 26.7628 13.4846 26.7038L13.573 24.9805C13.5877 24.8774 13.6467 24.8185 13.7498 24.8185C13.7939 24.8185 13.8381 24.8332 13.8676 24.8774C13.8971 24.9069 13.9118 24.9511 13.9118 24.9805L13.8823 26.7186C13.8823 26.8217 13.7939 26.91 13.6761 26.91ZM16.5925 26.6449C16.5188 26.6449 16.4452 26.586 16.4305 26.4976L16.1211 24.7596C16.1211 24.7154 16.1211 24.686 16.1359 24.6565C16.1506 24.627 16.1948 24.6123 16.2242 24.5976H16.2537C16.3274 24.5976 16.3715 24.6418 16.3863 24.7007L16.784 26.424C16.7987 26.4829 16.784 26.5271 16.7545 26.5713C16.725 26.6155 16.6808 26.6449 16.6367 26.6597H16.6072C16.6219 26.6449 16.6072 26.6449 16.5925 26.6449ZM10.745 26.5124C10.7303 26.5124 10.7156 26.5124 10.7008 26.5124C10.6419 26.4976 10.5977 26.4682 10.5683 26.4093C10.5388 26.3651 10.5388 26.3062 10.5535 26.2767L11.0249 24.5681C11.0396 24.5092 11.1133 24.465 11.1722 24.465H11.2016C11.2753 24.4797 11.3195 24.5534 11.3047 24.6418L10.9365 26.3503C10.9218 26.4387 10.8334 26.5124 10.745 26.5124ZM19.4205 25.7465C19.3615 25.7465 19.3026 25.7023 19.2732 25.6433L18.5809 24.0231C18.5514 23.9495 18.5809 23.8759 18.6545 23.8317H18.7135C18.7724 23.8317 18.8166 23.8611 18.846 23.9053L19.6119 25.4813C19.6414 25.5402 19.6414 25.5844 19.6267 25.6433C19.6119 25.6875 19.5825 25.717 19.553 25.7317L19.5088 25.7465C19.4646 25.7317 19.4499 25.7465 19.4205 25.7465ZM7.96123 25.4519C7.93177 25.4519 7.90231 25.4519 7.87285 25.4371C7.82867 25.4077 7.79921 25.3782 7.76975 25.3193C7.75502 25.2604 7.75502 25.2162 7.78448 25.172L8.63877 23.6255C8.66822 23.5518 8.74187 23.5518 8.7566 23.5518C8.78606 23.5518 8.81552 23.5518 8.83024 23.5665C8.87443 23.5813 8.88916 23.6107 8.90389 23.6549C8.91862 23.6844 8.90389 23.7138 8.90389 23.7433L8.13798 25.334C8.10852 25.4077 8.03487 25.4519 7.96123 25.4519ZM22.0128 24.2441C21.9391 24.2441 21.8802 24.2146 21.836 24.1557L20.8197 22.727C20.7755 22.6681 20.7903 22.5797 20.8492 22.5355C20.8786 22.5061 20.9081 22.5061 20.9376 22.5061C20.9817 22.5061 21.0259 22.5208 21.0554 22.565L22.1453 23.9348C22.1748 23.979 22.1895 24.0231 22.1895 24.0821C22.1895 24.141 22.1601 24.1852 22.1159 24.2146L22.1012 24.2294C22.057 24.2441 22.0275 24.2441 22.0128 24.2441ZM5.48674 23.8169C5.44255 23.8169 5.39837 23.8022 5.36891 23.7728C5.28053 23.6991 5.26581 23.5665 5.33945 23.4782L6.50305 22.1673C6.53251 22.1378 6.57669 22.1231 6.62088 22.1231C6.65034 22.1231 6.69453 22.1378 6.70926 22.1526C6.76817 22.1967 6.79763 22.2851 6.73871 22.3588L5.64876 23.7286C5.60457 23.7875 5.54566 23.8169 5.48674 23.8169ZM24.1485 22.182C24.1043 22.182 24.0601 22.1673 24.0159 22.1231L22.705 20.9595C22.6461 20.9006 22.6461 20.8122 22.6903 20.7533C22.7198 20.7238 22.764 20.7091 22.8081 20.7091C22.8376 20.7091 22.8671 20.7238 22.8965 20.7386L24.2663 21.8285C24.3105 21.858 24.34 21.9169 24.34 21.9611C24.34 21.9905 24.34 22.0494 24.2958 22.0936L24.2811 22.1084V22.1231C24.2369 22.1673 24.1927 22.182 24.1485 22.182ZM3.46886 21.6665C3.40994 21.6665 3.35102 21.637 3.30684 21.5928C3.27738 21.5487 3.26265 21.4897 3.27738 21.4308C3.27738 21.4014 3.30684 21.3572 3.35102 21.3277L4.79447 20.2967C4.8092 20.282 4.85339 20.2672 4.88285 20.2672C4.92704 20.2672 4.98595 20.282 5.01541 20.3261C5.07433 20.3998 5.04487 20.4734 4.98595 20.5324L3.61615 21.6223C3.55723 21.6518 3.51304 21.6665 3.46886 21.6665ZM25.7834 19.7223C25.754 19.7223 25.7245 19.7075 25.6951 19.7075L24.1485 18.8532C24.0601 18.809 24.0601 18.7207 24.0896 18.647L24.1043 18.6176V18.6028C24.1338 18.5734 24.178 18.5439 24.2221 18.5439C24.2369 18.5439 24.2516 18.5439 24.2811 18.5587L25.8718 19.3246C25.916 19.354 25.9602 19.3982 25.9749 19.4424C25.9896 19.4866 25.9896 19.5308 25.9602 19.575L25.9454 19.6044V19.6192C25.9013 19.6928 25.8423 19.7223 25.7834 19.7223ZM1.9223 19.1184C1.84866 19.1184 1.78974 19.0742 1.76028 19.0005C1.73082 18.9563 1.73082 18.9122 1.74555 18.8532C1.76028 18.809 1.80447 18.7649 1.84866 18.7354L3.46886 18.0431C3.48359 18.0431 3.51304 18.0284 3.52777 18.0284C3.58669 18.0284 3.63088 18.0579 3.66033 18.1168C3.68979 18.1757 3.66033 18.2788 3.60142 18.2935L2.02541 19.0594C1.98122 19.1036 1.95176 19.1184 1.9223 19.1184ZM26.8439 16.9385C26.8292 16.9385 26.8145 16.9385 26.7997 16.9385L25.1059 16.4524C25.0322 16.4377 24.9881 16.3493 25.0028 16.2756V16.2609C25.0322 16.202 25.0764 16.1578 25.1501 16.1578H25.1795L26.8881 16.5555C26.947 16.5702 26.9912 16.5997 27.0207 16.6439C27.0501 16.6881 27.0501 16.7322 27.0501 16.7764C27.0059 16.8795 26.9323 16.9385 26.8439 16.9385ZM1.02383 16.3051C0.935453 16.3051 0.861808 16.2462 0.832349 16.1725V16.1431V16.1284C0.81762 16.0694 0.832349 16.0253 0.861808 15.9958C0.891266 15.9516 0.935453 15.9221 0.994369 15.9074L2.74713 15.5981H2.77659C2.83551 15.5981 2.87969 15.6423 2.89442 15.6865V15.7159V15.7307C2.90915 15.8043 2.86496 15.878 2.79132 15.8927L1.08274 16.2904C1.06801 16.3051 1.03856 16.3051 1.02383 16.3051ZM25.5036 13.919C25.4005 13.9043 25.3416 13.8453 25.3416 13.7422C25.3416 13.6391 25.4152 13.5655 25.5183 13.5655H27.2416C27.3005 13.5655 27.3447 13.595 27.3889 13.6244C27.4184 13.6686 27.4331 13.7128 27.4331 13.757V13.8306C27.4331 13.8895 27.4184 13.919 27.4036 13.9337C27.3594 13.9779 27.3005 14.0074 27.2416 14.0074L25.5036 13.919ZM0.743975 13.3446C0.6556 13.3446 0.581955 13.2562 0.581955 13.1531C0.567226 13.0352 0.640871 12.9616 0.743975 12.9616L2.52619 13.05C2.58511 13.05 2.64403 13.1089 2.64403 13.1973C2.64403 13.2562 2.57038 13.3298 2.51147 13.3298L0.743975 13.3446ZM25.2826 11.3267C25.209 11.3267 25.1353 11.2825 25.1206 11.1941C25.1059 11.1499 25.1206 11.1057 25.1353 11.0763C25.1501 11.0468 25.1795 11.0321 25.2237 11.0174L26.947 10.6197H26.9912C27.0796 10.6197 27.1532 10.6786 27.168 10.7522V10.7817C27.1974 10.8995 27.109 10.9879 27.0059 11.0174L25.2826 11.3267ZM2.86496 10.7964C2.85023 10.7964 2.83551 10.7964 2.83551 10.7964L1.1122 10.3987C1.0091 10.3693 0.950182 10.2662 0.97964 10.1631V10.1483V10.1189C1.0091 10.0452 1.08274 10.0011 1.15639 10.0011C1.17112 10.0011 1.18585 10.0011 1.20058 10.0158L2.92388 10.5018C2.95334 10.5166 2.9828 10.5313 2.99753 10.5608C3.01225 10.5755 3.02698 10.6197 3.01225 10.6491V10.6639V10.6933C2.9828 10.767 2.93861 10.7964 2.86496 10.7964ZM24.4431 8.85219C24.3989 8.85219 24.3547 8.82273 24.3252 8.76381C24.3105 8.73435 24.3105 8.69017 24.3105 8.64598C24.3252 8.60179 24.3547 8.57233 24.3842 8.5576L25.9602 7.77696C25.9896 7.76223 26.0191 7.7475 26.0485 7.7475C26.1222 7.7475 26.1811 7.79169 26.2106 7.85061C26.2253 7.89479 26.24 7.95371 26.2106 8.01263C26.1958 8.05682 26.1517 8.101 26.1075 8.11573L24.4873 8.83746L24.4725 8.85219C24.4725 8.85219 24.4578 8.85219 24.4431 8.85219ZM3.76344 8.39558C3.74871 8.39558 3.71925 8.39558 3.70452 8.38085L2.12851 7.61494C2.08432 7.58548 2.04013 7.5413 2.02541 7.49711C2.01068 7.45292 2.01068 7.39401 2.04013 7.34982L2.05486 7.32036V7.30563C2.09905 7.24671 2.15797 7.23199 2.21688 7.23199C2.24634 7.23199 2.2758 7.24671 2.30526 7.26144L3.85181 8.13046C3.896 8.15992 3.91073 8.18938 3.92546 8.21883C3.94019 8.26302 3.92546 8.29248 3.91073 8.33667C3.88127 8.36613 3.82235 8.39558 3.76344 8.39558ZM23.1469 6.65755C23.1027 6.65755 23.0585 6.62809 23.0291 6.59863C22.9702 6.52499 22.9849 6.45134 23.0438 6.39243L24.4136 5.28775C24.4431 5.25829 24.4873 5.24356 24.5462 5.24356C24.5756 5.24356 24.6493 5.25829 24.6935 5.3172C24.7229 5.36139 24.7377 5.40558 24.7377 5.46449C24.7377 5.52341 24.7082 5.5676 24.6493 5.59706L23.2353 6.61336C23.2058 6.64282 23.1764 6.65755 23.1469 6.65755ZM5.19216 6.25987C5.1627 6.25987 5.13324 6.25987 5.10379 6.23041L3.73398 5.12573C3.64561 5.05208 3.63088 4.93425 3.70452 4.84587C3.73398 4.80169 3.7929 4.78696 3.85181 4.78696C3.896 4.78696 3.94019 4.80169 3.96965 4.83114L5.29526 6.00947C5.32472 6.03893 5.33945 6.06839 5.33945 6.11257C5.33945 6.15676 5.32472 6.18622 5.30999 6.21568C5.28053 6.24514 5.23635 6.25987 5.19216 6.25987ZM21.3647 4.78696C21.3352 4.78696 21.3058 4.77223 21.2763 4.7575C21.2027 4.69858 21.2027 4.62494 21.2469 4.55129L22.3368 3.18149C22.381 3.1373 22.4399 3.10784 22.4988 3.10784C22.5283 3.10784 22.5725 3.10784 22.6167 3.15203C22.6609 3.18149 22.6756 3.22567 22.6756 3.28459C22.6756 3.34351 22.6609 3.38769 22.6314 3.41715L21.4678 4.74277C21.4531 4.77223 21.4089 4.78696 21.3647 4.78696ZM7.04802 4.47765C7.00384 4.47765 6.95965 4.46292 6.93019 4.43346L5.84024 3.06365C5.81078 3.01947 5.79605 2.96055 5.79605 2.91636C5.79605 2.8869 5.81078 2.82799 5.8697 2.79853C5.91389 2.76907 5.95807 2.75434 5.9728 2.75434C6.03172 2.75434 6.10536 2.7838 6.14955 2.84272L7.16586 4.25671C7.21004 4.31563 7.19532 4.404 7.1364 4.46292C7.12167 4.46292 7.09221 4.47765 7.04802 4.47765ZM19.229 3.38769C19.2143 3.38769 19.1848 3.38769 19.1701 3.37296C19.1406 3.35823 19.1111 3.32878 19.0964 3.28459C19.0817 3.2404 19.0817 3.21094 19.1111 3.16676L19.8771 1.59074C19.9065 1.5171 19.9802 1.47291 20.0538 1.47291C20.0833 1.47291 20.1127 1.47291 20.1422 1.48764C20.1864 1.5171 20.2158 1.54656 20.2453 1.60547C20.26 1.66439 20.26 1.70858 20.2306 1.75276L19.4057 3.28459C19.3321 3.34351 19.2732 3.38769 19.229 3.38769ZM9.24266 3.15203C9.18374 3.15203 9.13955 3.12257 9.1101 3.06365L8.32946 1.48764C8.3 1.44345 8.3 1.38454 8.31473 1.34035C8.32946 1.29616 8.37364 1.25197 8.41783 1.22252C8.43256 1.22252 8.46202 1.20779 8.49148 1.20779C8.56512 1.20779 8.63877 1.25197 8.66822 1.32562L9.36049 2.94582C9.38995 3.01947 9.36049 3.09311 9.28685 3.1373C9.28685 3.15203 9.27212 3.15203 9.24266 3.15203ZM16.8281 2.47449C16.8134 2.47449 16.7987 2.47449 16.784 2.47449C16.7398 2.45976 16.7103 2.4303 16.6808 2.40084C16.6661 2.37139 16.6514 2.34193 16.6661 2.29774L17.0491 0.574437C17.0638 0.486062 17.1522 0.412417 17.2406 0.412417H17.2847C17.3878 0.441875 17.4468 0.544978 17.432 0.662811L16.946 2.35666C16.9312 2.44503 16.8723 2.47449 16.8281 2.47449ZM11.7171 2.35666C11.6435 2.35666 11.5699 2.31247 11.5699 2.25355L11.1722 0.544978C11.1574 0.486062 11.1722 0.427146 11.2016 0.382959C11.2311 0.338771 11.2753 0.324042 11.3195 0.309313H11.3636C11.452 0.309313 11.5404 0.382959 11.5551 0.486062L11.8644 2.20937C11.8644 2.25355 11.8644 2.28301 11.8497 2.31247C11.835 2.34193 11.7908 2.35666 11.7613 2.37139C11.7319 2.35666 11.7171 2.35666 11.7171 2.35666ZM14.2653 2.13572C14.1622 2.13572 14.118 2.06207 14.118 1.98843V0.235668C14.118 0.117835 14.2211 0.0441895 14.3095 0.0441895H14.3242C14.4273 0.0441895 14.5157 0.132564 14.5157 0.250397L14.4273 2.00316C14.4273 2.06207 14.3537 2.13572 14.2653 2.13572Z" fill="#FFE500"/>
<path d="M17.8886 23.9642C16.6219 24.4502 15.2374 24.7006 13.8529 24.7006C10.4357 24.7006 6.91546 23.1688 4.67664 19.7075C4.16112 18.9268 3.98438 18.4997 3.98438 18.4997L4.64718 17.2772C4.64718 17.2624 4.64718 17.2477 4.66191 17.2477C6.14955 20.9447 9.78764 23.5518 14.0002 23.5518C19.553 23.5518 24.0749 19.0299 24.0749 13.4771C24.0749 12.4166 23.9128 11.3855 23.6035 10.4134V10.3987C23.8834 10.4576 24.4136 10.6196 24.8555 10.7522C26.5199 17.071 22.8671 22.123 17.8886 23.9642Z" fill="#FFE500"/>
<path d="M14.0005 3.40247C8.44761 3.40247 3.92578 7.9243 3.92578 13.4772C3.92578 14.8028 4.1909 16.0695 4.66224 17.2331C6.01731 13.757 9.96471 11.5035 13.1904 10.2515C15.8711 9.22046 20.7169 8.9406 23.5891 10.3841C22.2782 6.34828 18.4781 3.40247 14.0005 3.40247Z" fill="#FFC500"/>
<path d="M18.2564 13.5507C17.9618 13.2562 17.6525 13.0205 17.2843 12.8585C18.4774 12.0778 18.7572 10.9142 18.5805 10.0305C18.3301 8.71959 17.0634 7.48235 15.0749 7.43816V6.02417H11.2748V7.45289H9.94922V19.2951H11.2748V20.9447H15.0897V19.3098C16.592 19.2804 18.0355 18.4555 18.713 17.1741C19.3464 15.9663 19.1696 14.6112 18.2564 13.5507ZM13.2927 14.5965H13.3516C13.9408 14.5818 14.9424 14.567 15.2517 14.8469L15.2959 14.8764C15.4726 15.0089 15.5905 15.2446 15.5905 15.5392C15.5905 15.8485 15.4726 16.1431 15.2812 16.2903L15.237 16.3345C14.9424 16.6291 13.9408 16.6144 13.3516 16.5997C13.3369 16.5997 13.3222 16.5997 13.3075 16.5997L13.2927 14.5965ZM15.1339 10.929C15.1486 11.2825 15.0308 11.4297 14.9424 11.5181C14.6036 11.8422 13.8819 11.8863 13.2927 11.8863V10.1336C14.147 10.1189 14.7951 10.2661 15.0455 10.5165C15.1044 10.5755 15.1633 10.6786 15.1486 10.87V10.8995L15.1339 10.929Z" fill="#FFE500"/>
<path d="M17.9329 13.6834C17.4616 13.1973 16.8429 12.9174 16.0623 12.8143V12.7849C19.7004 11.636 18.3306 7.45295 14.6483 7.7328V6.30408H13.5289V7.7328H12.8366V6.30408H11.7172V7.7328H10.3916V18.706H11.7172V20.3556H12.8366V18.706H13.5289V20.3556H14.6483V18.706C17.5058 19.0006 19.9066 16.0105 17.9329 13.6834ZM12.8514 9.55921C13.9413 9.48556 15.7235 9.57394 15.5762 10.767C15.6204 12.2399 13.9266 12.2104 12.8514 12.1663V9.55921ZM15.5321 16.4966C15.0018 17.0269 13.6025 16.8796 12.8514 16.8943V14.0074C13.6025 14.0221 15.0018 13.8748 15.5468 14.3756C16.2096 14.847 16.1654 16.0253 15.5321 16.4966Z" fill="#C78C00"/>
</g>
<defs>
<clipPath id="clip0_2_22774">
<rect width="28" height="28" fill="white"/>
</clipPath>
</defs>
</svg>
