<svg width="276" height="201" viewBox="0 0 276 201" fill="none" xmlns="http://www.w3.org/2000/svg">
<path d="M0.939331 13.0607C0.353546 12.4749 0.353546 11.5251 0.939331 10.9393L10.4853 1.3934C11.0711 0.807611 12.0208 0.807611 12.6066 1.3934C13.1924 1.97919 13.1924 2.92893 12.6066 3.51472L4.12131 12L12.6066 20.4853C13.1924 21.0711 13.1924 22.0208 12.6066 22.6066C12.0208 23.1924 11.0711 23.1924 10.4853 22.6066L0.939331 13.0607ZM265 13.5H2V10.5H265V13.5Z" fill="#03FB75"/>
<line x1="264.25" y1="11" x2="264.25" y2="201" stroke="#03FB75" stroke-width="2.5"/>
<g clip-path="url(#clip0_2_22757)">
<path d="M276 13.5C276 17.1059 274.596 20.4964 272.046 23.046C269.496 25.5957 266.106 27 262.5 27C258.894 27 255.504 25.5957 252.954 23.046C250.404 20.4964 249 17.1059 249 13.5C249 9.89408 250.404 6.50363 252.954 3.95405C255.504 1.40426 258.894 0 262.5 0C266.106 0 269.496 1.40426 272.046 3.95405C274.596 6.50363 276 9.89408 276 13.5Z" fill="#FFAA20"/>
<path d="M276 13.5C276 17.1059 274.596 20.4964 272.046 23.046C269.496 25.5957 266.106 27 262.5 27V0C266.106 0 269.496 1.40426 272.046 3.95405C274.596 6.50363 276 9.89408 276 13.5Z" fill="#FF8900"/>
<path d="M273.152 13.5C273.152 19.3735 268.373 24.1523 262.5 24.1523C256.627 24.1523 251.848 19.3735 251.848 13.5C251.848 7.6265 256.627 2.84766 262.5 2.84766C268.373 2.84766 273.152 7.6265 273.152 13.5Z" fill="#FFEC97"/>
<path d="M273.152 13.5C273.152 19.3735 268.373 24.1523 262.5 24.1523V2.84766C268.373 2.84766 273.152 7.6265 273.152 13.5Z" fill="#FFDB2D"/>
<path d="M266.191 15.4306C266.191 15.9396 266.095 16.3746 265.903 16.7364C265.711 17.0981 265.452 17.3908 265.126 17.6139C264.8 17.8368 264.425 17.9997 264.001 18.1027C263.769 18.1585 263.53 18.1991 263.286 18.2245V20.0681H261.704V18.1896C261.317 18.1365 260.933 18.0525 260.552 17.935C259.855 17.7208 259.23 17.4172 258.677 17.0241L259.494 15.4306C259.574 15.5107 259.719 15.6158 259.929 15.7449C260.138 15.8747 260.387 16.0043 260.672 16.1336C260.958 16.2632 261.275 16.3724 261.623 16.4616C261.909 16.5353 262.202 16.5782 262.5 16.5907C262.565 16.594 262.63 16.5955 262.695 16.5955C263.713 16.5955 264.222 16.2696 264.222 15.6178C264.222 15.4126 264.164 15.2386 264.048 15.0958C263.932 14.9529 263.767 14.8278 263.552 14.7203C263.338 14.6132 263.079 14.5151 262.775 14.4259C262.687 14.3996 262.595 14.3728 262.5 14.3454C262.271 14.2784 262.023 14.2072 261.758 14.1312C261.302 14.0063 260.907 13.8698 260.572 13.7225C260.237 13.5754 259.958 13.4009 259.735 13.1999C259.511 12.999 259.344 12.7671 259.233 12.5038C259.121 12.2401 259.065 11.9258 259.065 11.5593C259.065 11.0773 259.154 10.6486 259.333 10.2737C259.511 9.89819 259.759 9.58611 260.076 9.33604C260.393 9.08617 260.761 8.89624 261.182 8.76646C261.35 8.71435 261.525 8.67315 261.704 8.64204V6.9187H263.286V8.62C263.672 8.66944 264.037 8.75864 264.383 8.88738C264.945 9.09729 265.436 9.3451 265.856 9.6304L265.039 11.1307C264.976 11.0684 264.863 10.9836 264.698 10.8765C264.532 10.7689 264.331 10.6645 264.095 10.5617C263.858 10.4587 263.601 10.3718 263.325 10.3001C263.054 10.2305 262.779 10.1946 262.5 10.1936C262.494 10.193 262.487 10.193 262.48 10.193C261.972 10.193 261.592 10.2869 261.342 10.4746C261.092 10.6618 260.967 10.9255 260.967 11.2645C260.967 11.4613 261.014 11.6242 261.108 11.7534C261.202 11.8831 261.338 11.9971 261.517 12.0951C261.695 12.1938 261.92 12.283 262.193 12.3631C262.29 12.3915 262.392 12.421 262.5 12.4507C262.695 12.5044 262.907 12.5602 263.137 12.6177C263.601 12.7428 264.023 12.8767 264.403 13.0196C264.782 13.1626 265.104 13.3408 265.367 13.5554C265.63 13.7694 265.834 14.0263 265.977 14.3252C266.119 14.6247 266.191 14.9928 266.191 15.4306Z" fill="#FFAA20"/>
<path d="M263.325 10.3001C263.054 10.2305 262.779 10.1946 262.5 10.1936V6.9187H263.286V8.62C263.672 8.66944 264.037 8.75864 264.383 8.88738C264.945 9.09729 265.436 9.3451 265.856 9.6304L265.039 11.1307C264.976 11.0684 264.863 10.9836 264.698 10.8765C264.532 10.7689 264.331 10.6645 264.095 10.5617C263.858 10.4587 263.601 10.3718 263.325 10.3001Z" fill="#FF8900"/>
<path d="M266.191 15.4306C266.191 15.9396 266.095 16.3747 265.903 16.7364C265.711 17.0981 265.452 17.3908 265.126 17.6139C264.8 17.8368 264.425 17.9997 264.001 18.1027C263.769 18.1586 263.53 18.1991 263.286 18.2245V20.0681H262.5V16.5907C262.565 16.594 262.63 16.5955 262.695 16.5955C263.713 16.5955 264.222 16.2696 264.222 15.6178C264.222 15.4127 264.164 15.2386 264.048 15.0958C263.932 14.9529 263.767 14.8279 263.552 14.7203C263.338 14.6132 263.079 14.5152 262.775 14.426C262.687 14.3996 262.595 14.3728 262.5 14.3454V12.4507C262.695 12.5044 262.907 12.5603 263.137 12.6177C263.601 12.7428 264.023 12.8767 264.403 13.0196C264.782 13.1626 265.104 13.3408 265.367 13.5554C265.63 13.7695 265.834 14.0263 265.977 14.3252C266.119 14.6247 266.191 14.9929 266.191 15.4306Z" fill="#FF8900"/>
</g>
<defs>
<clipPath id="clip0_2_22757">
<rect width="27" height="27" fill="white" transform="translate(249)"/>
</clipPath>
</defs>
</svg>
