<svg width="44" height="44" viewBox="0 0 44 44" fill="none" xmlns="http://www.w3.org/2000/svg">
<path d="M22 0C17.6488 0 13.3953 1.29028 9.77746 3.70767C6.15958 6.12506 3.33979 9.56099 1.67466 13.581C0.00953225 17.6009 -0.426141 22.0244 0.422734 26.292C1.27161 30.5596 3.3669 34.4796 6.44366 37.5563C9.52041 40.6331 13.4404 42.7284 17.708 43.5773C21.9756 44.4261 26.3991 43.9905 30.419 42.3253C34.439 40.6602 37.8749 37.8404 40.2923 34.2225C42.7097 30.6047 44 26.3512 44 22C44 19.1109 43.431 16.2501 42.3254 13.581C41.2197 10.9118 39.5992 8.48654 37.5564 6.44365C35.5135 4.40076 33.0882 2.78025 30.419 1.67465C27.7499 0.569047 24.8891 0 22 0ZM29.062 25.938C29.2682 26.1425 29.4319 26.3858 29.5436 26.6539C29.6553 26.922 29.7128 27.2096 29.7128 27.5C29.7128 27.7904 29.6553 28.078 29.5436 28.3461C29.4319 28.6142 29.2682 28.8575 29.062 29.062C28.8575 29.2682 28.6142 29.4319 28.3461 29.5436C28.078 29.6552 27.7904 29.7127 27.5 29.7127C27.2096 29.7127 26.922 29.6552 26.6539 29.5436C26.3858 29.4319 26.1425 29.2682 25.938 29.062L22 25.102L18.062 29.062C17.8575 29.2682 17.6142 29.4319 17.3461 29.5436C17.078 29.6552 16.7904 29.7127 16.5 29.7127C16.2096 29.7127 15.922 29.6552 15.6539 29.5436C15.3858 29.4319 15.1425 29.2682 14.938 29.062C14.7318 28.8575 14.5681 28.6142 14.4564 28.3461C14.3448 28.078 14.2873 27.7904 14.2873 27.5C14.2873 27.2096 14.3448 26.922 14.4564 26.6539C14.5681 26.3858 14.7318 26.1425 14.938 25.938L18.898 22L14.938 18.062C14.5237 17.6477 14.291 17.0859 14.291 16.5C14.291 15.9141 14.5237 15.3523 14.938 14.938C15.3523 14.5237 15.9141 14.291 16.5 14.291C17.0859 14.291 17.6477 14.5237 18.062 14.938L22 18.898L25.938 14.938C26.3523 14.5237 26.9141 14.291 27.5 14.291C28.0859 14.291 28.6477 14.5237 29.062 14.938C29.4763 15.3523 29.709 15.9141 29.709 16.5C29.709 17.0859 29.4763 17.6477 29.062 18.062L25.102 22L29.062 25.938Z" fill="#FF013E"/>
</svg>
