<svg width="32" height="32" viewBox="0 0 32 32" fill="none" xmlns="http://www.w3.org/2000/svg">
<g clip-path="url(#clip0_1_444)">
<g filter="url(#filter0_bd_1_444)">
<path d="M29.8526 13.1222C29.8484 13.1138 29.8442 13.1054 29.84 13.0969L26.1936 6.57483H29.4736C29.7052 6.57483 29.8947 6.38535 29.8947 6.15378C29.8947 5.9222 29.7052 5.73272 29.4736 5.73272H17.7052C17.5452 5.09693 17.0526 4.60851 16.421 4.44851V3.42114C16.421 3.18957 16.2315 3.00009 16 3.00009C15.7684 3.00009 15.5789 3.18957 15.5789 3.42114V4.45272C14.9515 4.60851 14.4589 5.10114 14.2989 5.73272H2.52628C2.2947 5.73272 2.10522 5.9222 2.10522 6.15378C2.10522 6.38535 2.2947 6.57483 2.52628 6.57483H5.80628L2.15996 13.0927C2.15154 13.1011 2.15154 13.1096 2.14733 13.118C2.14312 13.1306 2.13891 13.139 2.1347 13.1517C2.11786 13.198 2.10522 13.2443 2.10522 13.2906V13.2948V13.299V13.3033C2.10944 15.7369 4.08838 17.7117 6.52207 17.7117C8.95575 17.7117 10.9347 15.7369 10.9389 13.3033V13.299C10.9389 13.299 10.9389 13.299 10.9389 13.2948L10.9347 13.2906C10.9347 13.2443 10.9263 13.198 10.9094 13.1517C10.9052 13.139 10.901 13.1306 10.8968 13.118C10.8926 13.1096 10.8884 13.1011 10.8842 13.0927L7.23786 6.57062H14.2947C14.4463 7.20641 14.9473 7.70325 15.5789 7.85904V20.2843C15.28 20.4485 14.9894 20.6169 14.7073 20.8022H11.3684C11.3768 20.659 11.3852 20.5159 11.3852 20.3727C11.3894 20.1706 11.2463 19.9938 11.0442 19.9559L7.49049 19.2696C7.36838 19.2443 7.24207 19.278 7.14522 19.3538C7.04838 19.4338 6.99365 19.5475 6.98944 19.6696L6.81259 26.7054C6.80838 26.819 6.8547 26.9285 6.9347 27.0127C7.01049 27.0927 7.11996 27.139 7.23365 27.139H9.46101C9.6168 27.139 9.75996 27.0506 9.83154 26.9117C9.90312 26.7854 9.96207 26.6506 10.0252 26.5159C11.2336 27.8675 14.0589 30.7811 16.0084 30.7811C16.2989 30.7811 16.5684 30.718 16.8126 30.5706C17.1326 30.6254 17.76 30.6675 18.2484 30.3433C18.4463 30.2085 18.5979 30.0275 18.6989 29.8085C18.9558 29.8422 19.2926 29.8338 19.6 29.6611C19.7852 29.5601 20.0126 29.3706 20.1558 29.0169C20.3831 29.0001 20.6736 28.9285 20.9305 28.7138C21.2421 28.4527 21.4063 28.0443 21.4442 27.5222C21.6084 27.459 21.8063 27.3706 21.9915 27.2317C22.0505 27.3496 22.1094 27.4675 22.1684 27.5769C22.24 27.7159 22.3831 27.8001 22.5389 27.8001H24.7663C24.88 27.8001 24.9894 27.7538 25.0694 27.6738C25.1452 27.5938 25.1915 27.4843 25.1873 27.3706L25.0105 20.3348C25.0063 20.2127 24.9515 20.099 24.8589 20.019C24.7621 19.9433 24.64 19.9096 24.5179 19.9306L20.5305 20.6169C20.3284 20.6506 20.181 20.8275 20.181 21.038C20.181 21.0843 20.1894 21.1348 20.1894 21.1811C19.0147 20.6211 17.6 20.1454 16.421 20.1201V7.86325C17.0568 7.70746 17.5536 7.21062 17.7094 6.57483H24.7621L21.1158 13.0969C21.1115 13.1054 21.1073 13.1138 21.1031 13.1222C21.0989 13.1348 21.0947 13.1432 21.0905 13.1559C21.0736 13.2022 21.0652 13.2485 21.061 13.2948V13.299V13.3033V13.3075C21.0652 15.7411 23.0442 17.7159 25.4779 17.7159C27.9115 17.7159 29.8905 15.7411 29.8947 13.3033V13.299C29.8947 13.299 29.8947 13.299 29.8947 13.2948V13.2906C29.8905 13.2443 29.8821 13.198 29.8652 13.1517C29.861 13.139 29.8568 13.1348 29.8526 13.1222ZM9.79786 12.8738H3.24207L6.52207 7.01693L9.79786 12.8738ZM24.181 20.8485L24.3368 26.9622H22.7958C21.9621 25.3664 21.141 23.4801 21.0358 21.3875L24.181 20.8485ZM16.4968 23.6738L20.6147 27.3959C20.6063 27.7159 20.5305 27.9475 20.3915 28.0654C20.2821 28.158 20.1431 28.179 20.0463 28.179L18.1726 26.1664C18.0168 25.998 17.7473 25.9896 17.5789 26.1454C17.4105 26.3054 17.3979 26.5706 17.5579 26.7433L19.3768 28.6969C19.3136 28.8569 19.2294 28.9075 19.1958 28.9243C19.0273 29.0169 18.7747 28.979 18.6358 28.9411L16.7368 26.899C16.5768 26.7264 16.3115 26.718 16.1389 26.878C15.9705 27.0338 15.9621 27.3033 16.1179 27.4717L17.941 29.4296C17.8947 29.5433 17.8315 29.6064 17.781 29.6401C17.5494 29.7959 17.1536 29.7748 16.9347 29.7369L15.0484 27.7117C14.8884 27.539 14.6231 27.5306 14.4505 27.6906C14.2821 27.8464 14.2736 28.1159 14.4294 28.2843L15.9789 29.9475C14.6779 29.9433 12.1179 27.6443 10.4 25.6654C10.8884 24.4317 11.1958 23.0843 11.3179 21.6443H13.6252C12.9726 22.2717 12.501 23.0338 12.3831 24.0317C12.3621 24.2211 12.4715 24.4022 12.6526 24.4738C14.1979 25.0675 15.0315 24.5369 15.4779 23.8843C15.8947 23.9096 16.2358 23.8422 16.4968 23.6738ZM22.2021 12.8738L25.4779 7.01693L28.7536 12.8738H22.2021Z" fill="white"/>
</g>
</g>
<defs>
<filter id="filter0_bd_1_444" x="-17.8948" y="-16.9999" width="67.7894" height="67.7811" filterUnits="userSpaceOnUse" color-interpolation-filters="sRGB">
<feFlood flood-opacity="0" result="BackgroundImageFix"/>
<feGaussianBlur in="BackgroundImageFix" stdDeviation="10"/>
<feComposite in2="SourceAlpha" operator="in" result="effect1_backgroundBlur_1_444"/>
<feColorMatrix in="SourceAlpha" type="matrix" values="0 0 0 0 0 0 0 0 0 0 0 0 0 0 0 0 0 0 127 0" result="hardAlpha"/>
<feOffset/>
<feGaussianBlur stdDeviation="3"/>
<feComposite in2="hardAlpha" operator="out"/>
<feColorMatrix type="matrix" values="0 0 0 0 0.371944 0 0 0 0 0.371944 0 0 0 0 0.433333 0 0 0 1 0"/>
<feBlend mode="normal" in2="effect1_backgroundBlur_1_444" result="effect2_dropShadow_1_444"/>
<feBlend mode="normal" in="SourceGraphic" in2="effect2_dropShadow_1_444" result="shape"/>
</filter>
<clipPath id="clip0_1_444">
<rect width="32" height="32" fill="white"/>
</clipPath>
</defs>
</svg>
