<svg width="110" height="36" viewBox="0 0 110 36" fill="none" xmlns="http://www.w3.org/2000/svg">
<path d="M96.3655 17.9998C96.3655 18.2848 96.2605 18.5698 96.0355 18.7948L90.7405 24.0898C90.3055 24.5248 89.5855 24.5248 89.1505 24.0898C88.7155 23.6548 88.7155 22.9348 89.1505 22.4998L93.6505 17.9998L89.1505 13.4998C88.7155 13.0648 88.7155 12.3448 89.1505 11.9098C89.5855 11.4748 90.3055 11.4748 90.7405 11.9098L96.0355 17.2048C96.2605 17.4298 96.3655 17.7148 96.3655 17.9998Z" fill="#434564"/>
<g filter="url(#filter0_d_2_6216)">
<path d="M14.232 14.676C14.112 15.408 13.812 16.02 13.332 16.512C12.864 16.992 12.288 17.34 11.604 17.556C12.18 17.676 12.642 17.964 12.99 18.42C13.35 18.876 13.53 19.416 13.53 20.04C13.53 20.208 13.512 20.394 13.476 20.598C13.308 21.618 12.792 22.44 11.928 23.064C11.076 23.688 10.008 24 8.724 24H3.306L5.538 11.436L10.722 11.436C11.862 11.436 12.738 11.676 13.35 12.156C13.974 12.636 14.286 13.278 14.286 14.082C14.286 14.274 14.268 14.472 14.232 14.676ZM11.604 15.054C11.616 14.982 11.622 14.874 11.622 14.73C11.622 14.31 11.484 13.986 11.208 13.758C10.932 13.53 10.53 13.416 10.002 13.416L7.716 13.416L7.14 16.656L9.444 16.656C10.032 16.656 10.518 16.518 10.902 16.242C11.286 15.954 11.52 15.558 11.604 15.054ZM10.974 20.292C10.998 20.124 11.01 20.004 11.01 19.932C11.01 19.5 10.854 19.164 10.542 18.924C10.242 18.672 9.822 18.546 9.282 18.546L6.798 18.546L6.204 22.002H8.742C9.354 22.002 9.858 21.852 10.254 21.552C10.65 21.252 10.89 20.832 10.974 20.292ZM16.1244 18.978C16.3044 17.97 16.6584 17.076 17.1864 16.296C17.7264 15.516 18.3804 14.916 19.1484 14.496C19.9164 14.076 20.7264 13.866 21.5784 13.866C22.3224 13.866 22.9464 14.016 23.4504 14.316C23.9664 14.616 24.3444 14.994 24.5844 15.45L24.8364 14.028L27.3744 14.028L25.6104 24H23.0724L23.3424 22.542C22.9464 23.01 22.4304 23.4 21.7944 23.712C21.1704 24.012 20.4864 24.162 19.7424 24.162C19.0104 24.162 18.3624 24 17.7984 23.676C17.2344 23.34 16.7964 22.872 16.4844 22.272C16.1724 21.66 16.0164 20.952 16.0164 20.148C16.0164 19.776 16.0524 19.386 16.1244 18.978ZM23.9544 19.014C24.0024 18.702 24.0264 18.474 24.0264 18.33C24.0264 17.622 23.8164 17.07 23.3964 16.674C22.9884 16.278 22.4724 16.08 21.8484 16.08C21.3804 16.08 20.9244 16.194 20.4804 16.422C20.0484 16.65 19.6704 16.986 19.3464 17.43C19.0224 17.862 18.8064 18.378 18.6984 18.978C18.6624 19.206 18.6444 19.422 18.6444 19.626C18.6444 20.346 18.8484 20.916 19.2564 21.336C19.6644 21.744 20.1804 21.948 20.8044 21.948C21.2724 21.948 21.7284 21.834 22.1724 21.606C22.6164 21.366 22.9944 21.024 23.3064 20.58C23.6304 20.136 23.8464 19.614 23.9544 19.014ZM29.3236 19.014C29.5036 17.982 29.8696 17.082 30.4216 16.314C30.9736 15.534 31.6576 14.934 32.4736 14.514C33.3016 14.082 34.1956 13.866 35.1556 13.866C36.3916 13.866 37.3576 14.172 38.0536 14.784C38.7616 15.396 39.1576 16.266 39.2416 17.394H36.5236C36.4516 16.962 36.2656 16.626 35.9656 16.386C35.6656 16.134 35.2636 16.008 34.7596 16.008C34.0396 16.008 33.4216 16.272 32.9056 16.8C32.4016 17.316 32.0656 18.054 31.8976 19.014C31.8376 19.35 31.8076 19.638 31.8076 19.878C31.8076 20.562 31.9756 21.09 32.3116 21.462C32.6476 21.822 33.1156 22.002 33.7156 22.002C34.7236 22.002 35.4676 21.546 35.9476 20.634H38.6656C38.1976 21.714 37.4956 22.572 36.5596 23.208C35.6356 23.844 34.5676 24.162 33.3556 24.162C32.0956 24.162 31.0876 23.808 30.3316 23.1C29.5876 22.38 29.2156 21.408 29.2156 20.184C29.2156 19.812 29.2516 19.422 29.3236 19.014ZM46.5518 19.014L50.0798 24L46.8218 24L44.1938 19.77L43.4378 24H40.8998L43.2578 10.68L45.7958 10.68L44.4638 18.24L48.5318 14.028L51.8258 14.028L46.5518 19.014Z" fill="#434564"/>
</g>
<defs>
<filter id="filter0_d_2_6216" x="0.306" y="8.67969" width="56.5198" height="21.4824" filterUnits="userSpaceOnUse" color-interpolation-filters="sRGB">
<feFlood flood-opacity="0" result="BackgroundImageFix"/>
<feColorMatrix in="SourceAlpha" type="matrix" values="0 0 0 0 0 0 0 0 0 0 0 0 0 0 0 0 0 0 127 0" result="hardAlpha"/>
<feOffset dx="1" dy="2"/>
<feGaussianBlur stdDeviation="2"/>
<feComposite in2="hardAlpha" operator="out"/>
<feColorMatrix type="matrix" values="0 0 0 0 0.6875 0 0 0 0 0.6875 0 0 0 0 0.6875 0 0 0 0.18 0"/>
<feBlend mode="normal" in2="BackgroundImageFix" result="effect1_dropShadow_2_6216"/>
<feBlend mode="normal" in="SourceGraphic" in2="effect1_dropShadow_2_6216" result="shape"/>
</filter>
</defs>
</svg>
