<svg width="76" height="76" viewBox="0 0 76 76" fill="none" xmlns="http://www.w3.org/2000/svg">
<path d="M22.477 32.8569L5.87988 64.1266L20.9516 62.7342L28.2462 75.9977L44.8434 44.728L22.477 32.8569Z" fill="#E95454"/>
<path d="M24.3775 66.8924C24.8432 65.892 24.3561 64.6968 23.3819 64.1789L22.4267 63.6704C21.4715 63.1262 21.1079 61.9168 21.6283 60.9378C22.1558 59.9422 23.3961 59.5621 24.3917 60.0896L27.091 61.5224C27.925 61.9643 28.9705 61.6435 29.4006 60.8048L29.4671 60.6765C29.9613 59.8852 29.6691 58.8397 28.8469 58.4049L20.7729 54.1208C19.7892 53.598 19.3068 52.4076 19.7654 51.4049C20.2715 50.338 21.5499 49.9174 22.5787 50.4639L30.0683 54.4392C30.9023 54.8811 31.9478 54.5603 32.3897 53.7263L32.4325 53.617L32.4444 53.5933C32.922 52.7189 32.5869 51.6211 31.7054 51.153L27.5044 48.9242C26.5207 48.4015 26.0384 47.211 26.5041 46.1964C27.0054 45.1414 28.2885 44.709 29.3174 45.2555L33.958 47.7195C34.8252 48.1805 35.8612 47.7955 36.3103 46.9211C36.3174 46.9093 36.3174 46.9093 36.3222 46.8974C36.3293 46.8855 36.3293 46.8855 36.3341 46.8736C36.8069 46.0111 36.5455 44.9371 35.6759 44.4785L30.6694 41.822C29.6976 41.3064 29.2152 40.1159 29.6738 39.1132C30.1799 38.0464 31.4583 37.6258 32.4871 38.1723L44.8382 44.728L28.241 75.9976L23.667 67.6836C23.9616 67.484 24.2183 67.2369 24.3775 66.8924Z" fill="#ED6362"/>
<path d="M53.5226 32.8569L70.1198 64.1266L55.0481 62.7342L47.7534 75.9977L31.1562 44.728L53.5226 32.8569Z" fill="#ED6362"/>
<path d="M51.6223 66.8923C51.1566 65.892 51.6437 64.6968 52.6179 64.1788L53.5731 63.6703C54.5283 63.1262 54.8918 61.9167 54.3714 60.9378C53.8439 59.9422 52.6036 59.562 51.608 60.0895L48.9087 61.5223C48.0747 61.9643 47.0292 61.6435 46.5992 60.8047L46.5326 60.6764C46.0384 59.8852 46.3307 58.8397 47.1528 58.4048L55.2292 54.1183C56.2129 53.5956 56.6953 52.4052 56.2367 51.4024C55.7306 50.3356 54.4522 49.915 53.4234 50.4615L45.9339 54.4367C45.0998 54.8787 44.0543 54.5579 43.6124 53.7239L43.5696 53.6146L43.5577 53.5908C43.0801 52.7164 43.4152 51.6187 44.2967 51.1506L48.4977 48.9218C49.4814 48.399 49.9637 47.2086 49.498 46.194C48.9967 45.139 47.7136 44.7065 46.6847 45.253L42.0394 47.7218C41.1721 48.1828 40.1361 47.7979 39.6871 46.9235C39.6799 46.9116 39.6799 46.9116 39.6752 46.8997C39.668 46.8878 39.668 46.8878 39.6633 46.8759C39.1904 46.0134 39.4518 44.9394 40.3215 44.4808L45.3279 41.8243C46.2998 41.3087 46.7821 40.1183 46.3235 39.1155C45.8174 38.0487 44.5391 37.6281 43.5102 38.1746L31.1592 44.7303L47.7563 76L52.3304 67.6859C52.0381 67.484 51.7815 67.2369 51.6223 66.8923Z" fill="#E95454"/>
<path d="M38.0002 55.4632C53.3159 55.4632 65.7318 43.0474 65.7318 27.7316C65.7318 12.4159 53.3159 0 38.0002 0C22.6844 0 10.2686 12.4159 10.2686 27.7316C10.2686 43.0474 22.6844 55.4632 38.0002 55.4632Z" fill="#FFCC5B"/>
<path d="M41.7618 24.5499H24.1881C22.8218 24.5499 21.7003 23.4284 21.7003 22.0622L21.7193 21.8911V21.8531C21.7003 20.4108 22.8765 19.2322 24.3212 19.2322H36.5011C38.1145 19.2322 39.5402 18.037 39.6352 16.4213C39.7112 14.7318 38.364 13.3062 36.6722 13.3062H23.7699C22.3466 13.3062 21.2821 12.111 21.3011 10.6853C21.3011 10.6663 21.3011 10.6663 21.3011 10.6473C21.3011 10.6283 21.3011 10.6283 21.3011 10.6093C21.2821 9.186 22.3442 7.98844 23.7699 7.98844H37.271C38.8654 7.98844 40.291 6.79325 40.3861 5.19651C40.4621 3.48808 39.1148 2.08142 37.4231 2.08142H27.536C17.4542 6.23724 10.3496 16.1504 10.3496 27.7316C10.3496 39.3127 17.4542 49.2235 27.5384 53.3746H40.0914C41.6858 53.3746 43.1115 52.1794 43.2065 50.5827C43.2825 48.8742 41.9353 47.4699 40.2435 47.4699L25.9631 47.4676C24.2784 47.4676 22.9216 46.0585 23.0119 44.3525C23.0951 42.7557 24.5303 41.5558 26.1294 41.5558H31.6657C33.2577 41.5107 34.5432 40.2062 34.5432 38.6023C34.5432 36.9699 33.215 35.6393 31.5802 35.6393H23.1878C21.8215 35.6393 20.7 34.5201 20.719 33.1515V32.9424C20.6239 31.5951 21.7074 30.4546 23.0547 30.4546H41.5908C43.2041 30.4546 44.6298 29.2594 44.7248 27.6627C44.8009 25.9566 43.4513 24.5499 41.7618 24.5499Z" fill="#FDBC4B"/>
<path d="M38.0005 47.5247C27.0846 47.5247 18.2051 38.6428 18.2051 27.7293C18.2051 16.8158 27.0846 7.93628 38.0005 7.93628C48.9164 7.93628 57.7959 16.8182 57.7959 27.7317C57.7959 38.6452 48.9164 47.5247 38.0005 47.5247Z" fill="#FFDB70"/>
<path opacity="0.2" d="M57.7953 27.7317C57.7953 17.2007 49.5217 8.58731 39.1357 7.99329H37.2918C36.0753 7.99329 34.9894 8.90571 34.9157 10.1223C34.8587 11.4244 35.8852 12.4984 37.1754 12.4984L48.0675 12.5008C49.353 12.5008 50.3866 13.5748 50.3177 14.8769C50.2535 16.0958 49.1605 17.0106 47.9392 17.0106H43.7168C42.5026 17.0463 41.5213 18.0395 41.5213 19.2632C41.5213 20.5083 42.5359 21.5229 43.781 21.5229H50.1822C51.2254 21.5229 52.0784 22.3783 52.0641 23.419V23.5758C52.1354 24.6047 51.3109 25.472 50.282 25.472H36.1465C34.9157 25.472 33.8298 26.3844 33.7562 27.601C33.6991 28.9031 34.7256 29.9771 36.0159 29.9771H49.4171C50.4603 29.9771 51.3133 30.8325 51.3133 31.8732L51.299 32.0039V32.0324C51.3133 33.1326 50.4151 34.0307 49.315 34.0307H40.0244C38.7935 34.0307 37.7076 34.9432 37.634 36.174C37.577 37.4618 38.6034 38.5501 39.8937 38.5501H49.7332C50.819 38.5501 51.6293 39.4625 51.615 40.5484C51.615 40.5627 51.615 40.5627 51.615 40.5769C51.615 40.5912 51.615 40.5912 51.615 40.6054C51.6293 41.6913 50.819 42.6038 49.7332 42.6038H39.4375C38.2209 42.6038 37.135 43.5162 37.0613 44.7328C37.0043 46.0372 38.0308 47.1089 39.321 47.1089H42.0369C51.0258 45.2365 57.7953 37.2599 57.7953 27.7317Z" fill="white"/>
<path d="M51.8191 23.3477H42.1911L39.2138 14.1901C38.8312 13.0139 37.1656 13.0139 36.783 14.1901L33.8081 23.3477H24.1801C22.9422 23.3477 22.4265 24.9325 23.4293 25.6596L31.2182 31.3195L28.2433 40.4771C27.8607 41.6532 29.208 42.6322 30.2107 41.9051L37.9996 36.2452L45.7885 41.9051C46.7912 42.6322 48.1385 41.6532 47.7559 40.4771L44.781 31.3195L52.5699 25.6596C53.5703 24.9325 53.057 23.3477 51.8191 23.3477Z" fill="#EC9922"/>
</svg>
